<svg width="41" height="41" viewBox="0 0 41 41" fill="none" xmlns="http://www.w3.org/2000/svg">
<rect x="0.5" y="0.5" width="40" height="40" rx="11.5" fill="white" stroke="#E8ECF4"/>
<path d="M23.1578 13.3669C23.0659 13.2747 22.9567 13.2016 22.8365 13.1517C22.7162 13.1019 22.5873 13.0762 22.4572 13.0762C22.327 13.0762 22.1981 13.1019 22.0779 13.1517C21.9577 13.2016 21.8485 13.2747 21.7566 13.3669L15.1778 19.9456C15.1044 20.0189 15.0462 20.1059 15.0065 20.2017C14.9667 20.2974 14.9463 20.4001 14.9463 20.5038C14.9463 20.6075 14.9667 20.7101 15.0065 20.8059C15.0462 20.9017 15.1044 20.9887 15.1778 21.0619L21.7566 27.6406C22.1445 28.0286 22.7699 28.0286 23.1578 27.6406C23.5457 27.2527 23.5457 26.6273 23.1578 26.2394L17.4261 20.4998L23.1657 14.7602C23.5457 14.3802 23.5457 13.7469 23.1578 13.3669Z" fill="#1E232C" stroke="#1E232C" stroke-width="0.2"/>
</svg>
