<svg width="25" height="25" viewBox="0 0 25 25" fill="none" xmlns="http://www.w3.org/2000/svg">
<path d="M22.1982 7.16529L17.835 2.80103C17.6899 2.6559 17.5176 2.54078 17.328 2.46223C17.1384 2.38369 16.9352 2.34326 16.73 2.34326C16.5248 2.34326 16.3216 2.38369 16.132 2.46223C15.9424 2.54078 15.7701 2.6559 15.625 2.80103L3.58302 14.844C3.43729 14.9886 3.32176 15.1607 3.24313 15.3503C3.1645 15.5399 3.12435 15.7432 3.12501 15.9485V20.3128C3.12501 20.7272 3.28963 21.1246 3.58265 21.4176C3.87568 21.7106 4.27311 21.8753 4.68751 21.8753H9.05177C9.25703 21.8759 9.46038 21.8358 9.64999 21.7571C9.8396 21.6785 10.0117 21.563 10.1563 21.4172L22.1982 9.37525C22.3434 9.23016 22.4585 9.05789 22.537 8.8683C22.6156 8.6787 22.656 8.47549 22.656 8.27027C22.656 8.06505 22.6156 7.86184 22.537 7.67225C22.4585 7.48265 22.3434 7.31039 22.1982 7.16529ZM9.05177 20.3128H4.68751V15.9485L13.2813 7.35474L17.6455 11.719L9.05177 20.3128ZM18.75 10.6135L14.3857 6.25025L16.7295 3.9065L21.0938 8.26978L18.75 10.6135Z" fill="#1E232C"/>
</svg>
