<svg width="18" height="14" viewBox="0 0 18 14" fill="none" xmlns="http://www.w3.org/2000/svg">
<path d="M1.12413 8.61788C1.89813 4.34288 5.13374 1.30534 8.77337 1.30534C12.4119 1.30534 15.6475 4.34288 16.4226 8.61788C16.4533 8.78752 16.5414 8.93618 16.6674 9.03116C16.7934 9.12615 16.947 9.15967 17.0945 9.12436C17.242 9.08904 17.3712 8.98779 17.4538 8.84287C17.5364 8.69795 17.5655 8.52123 17.5348 8.35159C16.653 3.48919 12.9646 0 8.77337 0C4.58218 0 0.893743 3.48919 0.011923 8.35159C-0.0187785 8.52123 0.0103666 8.69795 0.0929468 8.84287C0.175527 8.98779 0.304778 9.08904 0.452265 9.12436C0.599753 9.15967 0.753396 9.12615 0.879395 9.03116C1.00539 8.93618 1.09343 8.78752 1.12413 8.61788ZM8.76202 3.91603C9.81551 3.91603 10.8258 4.39738 11.5708 5.25418C12.3157 6.11097 12.7342 7.27304 12.7342 8.48474C12.7342 9.69643 12.3157 10.8585 11.5708 11.7153C10.8258 12.5721 9.81551 13.0534 8.76202 13.0534C7.70854 13.0534 6.69821 12.5721 5.95328 11.7153C5.20836 10.8585 4.78986 9.69643 4.78986 8.48474C4.78986 7.27304 5.20836 6.11097 5.95328 5.25418C6.69821 4.39738 7.70854 3.91603 8.76202 3.91603Z" fill="#6A707C"/>
</svg>

