<svg width="24" height="24" viewBox="0 0 24 24" fill="none" xmlns="http://www.w3.org/2000/svg">
<mask id="mask0_88_1493" style="mask-type:alpha" maskUnits="userSpaceOnUse" x="0" y="0" width="24" height="24">
<rect width="24" height="24" fill="#D9D9D9"/>
</mask>
<g mask="url(#mask0_88_1493)">
<path d="M19.8 22.5998L15.6 18.4498C15.0167 18.6331 14.4292 18.7706 13.8375 18.8623C13.2458 18.954 12.6333 18.9998 12 18.9998C9.48333 18.9998 7.24167 18.304 5.275 16.9123C3.30833 15.5206 1.88333 13.7165 1 11.4998C1.35 10.6165 1.79167 9.79564 2.325 9.03731C2.85833 8.27897 3.46667 7.5998 4.15 6.9998L1.4 4.1998L2.8 2.7998L21.2 21.1998L19.8 22.5998ZM12 15.9998C12.1833 15.9998 12.3542 15.9915 12.5125 15.9748C12.6708 15.9581 12.8417 15.9248 13.025 15.8748L7.625 10.4748C7.575 10.6581 7.54167 10.829 7.525 10.9873C7.50833 11.1456 7.5 11.3165 7.5 11.4998C7.5 12.7498 7.9375 13.8123 8.8125 14.6873C9.6875 15.5623 10.75 15.9998 12 15.9998ZM19.3 16.4498L16.125 13.2998C16.2417 13.0165 16.3333 12.729 16.4 12.4373C16.4667 12.1456 16.5 11.8331 16.5 11.4998C16.5 10.2498 16.0625 9.18731 15.1875 8.3123C14.3125 7.4373 13.25 6.9998 12 6.9998C11.6667 6.9998 11.3542 7.03314 11.0625 7.0998C10.7708 7.16647 10.4833 7.26647 10.2 7.39981L7.65 4.8498C8.33333 4.56647 9.03333 4.35397 9.75 4.2123C10.4667 4.07064 11.2167 3.9998 12 3.9998C14.5167 3.9998 16.7583 4.69564 18.725 6.08731C20.6917 7.47897 22.1167 9.28314 23 11.4998C22.6167 12.4831 22.1125 13.3956 21.4875 14.2373C20.8625 15.079 20.1333 15.8165 19.3 16.4498ZM14.675 11.8498L11.675 8.84981C12.1417 8.76647 12.5708 8.80397 12.9625 8.96231C13.3542 9.12064 13.6917 9.34981 13.975 9.64981C14.2583 9.94981 14.4625 10.2956 14.5875 10.6873C14.7125 11.079 14.7417 11.4665 14.675 11.8498Z" fill="#8391A1"/>
</g>
</svg>
