<svg width="40" height="40" viewBox="0 0 40 40" fill="none" xmlns="http://www.w3.org/2000/svg">
<path d="M19.943 0C15.9987 0 12.1429 1.17298 8.86328 3.37061C5.58367 5.56823 3.02752 8.69181 1.51808 12.3463C0.008641 16.0008 -0.386297 20.0222 0.383208 23.9018C1.15271 27.7814 3.0521 31.3451 5.84118 34.1421C8.63026 36.9392 12.1838 38.844 16.0523 39.6157C19.9209 40.3874 23.9308 39.9913 27.5749 38.4776C31.219 36.9638 34.3337 34.4004 36.525 31.1114C38.7164 27.8224 39.886 23.9556 39.886 20C39.8805 14.6974 37.7775 9.61356 34.0387 5.86405C30.2999 2.11453 25.2305 0.00559965 19.943 0ZM9.60334 33.3654C10.7131 31.6248 12.242 30.1923 14.0489 29.2001C15.8559 28.2079 17.8829 27.6878 19.943 27.6878C22.0031 27.6878 24.0301 28.2079 25.8371 29.2001C27.6441 30.1923 29.1729 31.6248 30.2827 33.3654C27.3264 35.6711 23.6881 36.9229 19.943 36.9229C16.1979 36.9229 12.5596 35.6711 9.60334 33.3654ZM13.8067 18.4615C13.8067 17.2444 14.1666 16.0546 14.8409 15.0426C15.5151 14.0306 16.4735 13.2419 17.5948 12.7761C18.716 12.3104 19.9498 12.1885 21.1402 12.4259C22.3305 12.6634 23.4239 13.2495 24.2821 14.1101C25.1402 14.9707 25.7247 16.0673 25.9614 17.261C26.1982 18.4547 26.0767 19.692 25.6122 20.8165C25.1478 21.941 24.3613 22.9021 23.3522 23.5783C22.3431 24.2545 21.1567 24.6154 19.943 24.6154C18.3156 24.6154 16.7548 23.967 15.604 22.813C14.4532 21.6589 13.8067 20.0936 13.8067 18.4615ZM32.5531 31.2327C30.8422 28.7463 28.4364 26.8227 25.6383 25.7038C27.1413 24.5166 28.2381 22.8892 28.7761 21.0479C29.3141 19.2066 29.2666 17.2429 28.6401 15.4299C28.0137 13.6169 26.8394 12.0448 25.2807 10.9321C23.722 9.81941 21.8563 9.22149 19.943 9.22149C18.0298 9.22149 16.164 9.81941 14.6053 10.9321C13.0466 12.0448 11.8724 13.6169 11.2459 15.4299C10.6195 17.2429 10.5719 19.2066 11.1099 21.0479C11.6479 22.8892 12.7447 24.5166 14.2478 25.7038C11.4496 26.8227 9.04384 28.7463 7.3329 31.2327C5.17094 28.7945 3.75787 25.7816 3.26385 22.5567C2.76982 19.3318 3.21591 16.0325 4.54839 13.056C5.88087 10.0794 8.04294 7.55265 10.7742 5.77988C13.5055 4.00711 16.6896 3.06393 19.943 3.06393C23.1965 3.06393 26.3805 4.00711 29.1118 5.77988C31.8431 7.55265 34.0052 10.0794 35.3377 13.056C36.6701 16.0325 37.1162 19.3318 36.6222 22.5567C36.1282 25.7816 34.7151 28.7945 32.5531 31.2327Z" fill="#1E232C"/>
</svg>
