<svg width="25" height="25" viewBox="0 0 25 25" fill="none" xmlns="http://www.w3.org/2000/svg">
<path d="M21.0938 4.6875H17.1875V3.90625C17.1875 3.28465 16.9406 2.68851 16.501 2.24897C16.0615 1.80943 15.4654 1.5625 14.8438 1.5625H10.1562C9.53465 1.5625 8.93851 1.80943 8.49897 2.24897C8.05943 2.68851 7.8125 3.28465 7.8125 3.90625V4.6875H3.90625C3.69905 4.6875 3.50034 4.76981 3.35382 4.91632C3.20731 5.06284 3.125 5.26155 3.125 5.46875C3.125 5.67595 3.20731 5.87466 3.35382 6.02118C3.50034 6.16769 3.69905 6.25 3.90625 6.25H4.6875V20.3125C4.6875 20.7269 4.85212 21.1243 5.14515 21.4174C5.43817 21.7104 5.8356 21.875 6.25 21.875H18.75C19.1644 21.875 19.5618 21.7104 19.8549 21.4174C20.1479 21.1243 20.3125 20.7269 20.3125 20.3125V6.25H21.0938C21.301 6.25 21.4997 6.16769 21.6462 6.02118C21.7927 5.87466 21.875 5.67595 21.875 5.46875C21.875 5.26155 21.7927 5.06284 21.6462 4.91632C21.4997 4.76981 21.301 4.6875 21.0938 4.6875ZM9.375 3.90625C9.375 3.69905 9.45731 3.50034 9.60382 3.35382C9.75034 3.20731 9.94905 3.125 10.1562 3.125H14.8438C15.051 3.125 15.2497 3.20731 15.3962 3.35382C15.5427 3.50034 15.625 3.69905 15.625 3.90625V4.6875H9.375V3.90625ZM18.75 20.3125H6.25V6.25H18.75V20.3125ZM10.9375 10.1562V16.4062C10.9375 16.6135 10.8552 16.8122 10.7087 16.9587C10.5622 17.1052 10.3635 17.1875 10.1562 17.1875C9.94905 17.1875 9.75034 17.1052 9.60382 16.9587C9.45731 16.8122 9.375 16.6135 9.375 16.4062V10.1562C9.375 9.94905 9.45731 9.75034 9.60382 9.60382C9.75034 9.45731 9.94905 9.375 10.1562 9.375C10.3635 9.375 10.5622 9.45731 10.7087 9.60382C10.8552 9.75034 10.9375 9.94905 10.9375 10.1562ZM15.625 10.1562V16.4062C15.625 16.6135 15.5427 16.8122 15.3962 16.9587C15.2497 17.1052 15.051 17.1875 14.8438 17.1875C14.6365 17.1875 14.4378 17.1052 14.2913 16.9587C14.1448 16.8122 14.0625 16.6135 14.0625 16.4062V10.1562C14.0625 9.94905 14.1448 9.75034 14.2913 9.60382C14.4378 9.45731 14.6365 9.375 14.8438 9.375C15.051 9.375 15.2497 9.45731 15.3962 9.60382C15.5427 9.75034 15.625 9.94905 15.625 10.1562Z" fill="#A61A22"/>
</svg>
